<?xml version="1.0" standalone="no"?><!-- Generator: Gravit.io --><svg xmlns="http://www.w3.org/2000/svg" xmlns:xlink="http://www.w3.org/1999/xlink" style="isolation:isolate" viewBox="0 0 151.495 134.294" width="151.495" height="134.294"><defs><clipPath id="_clipPath_hg2bUTlFrVq1FcCL8xoJhLVJtS5Wo2z0"><rect width="151.495" height="134.294"/></clipPath></defs><g clip-path="url(#_clipPath_hg2bUTlFrVq1FcCL8xoJhLVJtS5Wo2z0)"><path d=" M 108.343 132.794 L 75.747 132.794 L 43.152 132.794 C 40.224 132.794 36.658 130.734 35.193 128.198 L 18.896 99.97 L 2.598 71.742 C 1.134 69.206 1.134 65.088 2.598 62.552 L 18.896 34.323 L 35.193 6.095 C 36.658 3.559 40.224 1.5 43.152 1.5 L 75.747 1.5 L 108.343 1.5 C 111.271 1.5 114.837 3.559 116.302 6.095 L 132.599 34.323 L 148.897 62.552 C 150.361 65.088 150.361 69.206 148.897 71.742 L 132.599 99.97 L 116.302 128.198 C 114.837 130.734 111.271 132.794 108.343 132.794 Z " fill="none" vector-effect="non-scaling-stroke" stroke-width="1" stroke="rgb(0,0,0)" stroke-linejoin="miter" stroke-linecap="square" stroke-miterlimit="3"/></g></svg>